<svg xmlns="http://www.w3.org/2000/svg" width="41.91" height="38.266" viewBox="0 0 41.91 38.266">
  <path id="Icon_material-add-a-photo" data-name="Icon material-add-a-photo" d="M5.467,6.967V1.5H9.111V6.967h5.467v3.644H9.111v5.467H5.467V10.611H0V6.967ZM10.933,17.9V12.433H16.4V6.967H29.155l3.335,3.644h5.776a3.655,3.655,0,0,1,3.644,3.644V36.121a3.655,3.655,0,0,1-3.644,3.644H9.111a3.655,3.655,0,0,1-3.644-3.644V17.9ZM23.688,34.3a9.111,9.111,0,1,0-9.111-9.111A9.114,9.114,0,0,0,23.688,34.3Zm-5.831-9.111a5.831,5.831,0,1,0,5.831-5.831A5.825,5.825,0,0,0,17.857,25.188Z" transform="translate(0 -1.5)" fill="#aeaeae"/>
</svg>
