<svg xmlns="http://www.w3.org/2000/svg" width="168" height="244" viewBox="0 0 168 244">
  <g id="Group_286" data-name="Group 286" transform="translate(-104 -257)">
    <text id="Livré" transform="translate(118 487)" fill="#5db72a" font-size="57" font-family="SegoeUI-Bold, Segoe UI" font-weight="700" letter-spacing="0.063em"><tspan x="0" y="0">Livré</tspan></text>
    <g id="Group_285" data-name="Group 285">
      <g id="Rectangle_226" data-name="Rectangle 226" transform="translate(104 257)" fill="none" stroke="#5db72a" stroke-width="5">
        <rect width="168" height="169" rx="84" stroke="none"/>
        <rect x="2.5" y="2.5" width="163" height="164" rx="81.5" fill="none"/>
      </g>
      <path id="Icon_awesome-check" data-name="Icon awesome-check" d="M35.227,80.4,1.519,46.693a5.186,5.186,0,0,1,0-7.334l7.334-7.334a5.186,5.186,0,0,1,7.334,0L38.894,54.732,87.53,6.1a5.186,5.186,0,0,1,7.334,0L102.2,13.43a5.186,5.186,0,0,1,0,7.334L42.56,80.4A5.186,5.186,0,0,1,35.227,80.4Z" transform="translate(136 298.503)" fill="#5db72a"/>
    </g>
  </g>
</svg>
