<svg xmlns="http://www.w3.org/2000/svg" width="57.839" height="58.25" viewBox="0 0 57.839 58.25">
  <g id="Group_286" data-name="Group 286" transform="translate(-164.73 -420.173)">
    <path id="Icon_awesome-file" data-name="Icon awesome-file" d="M25.455,15.455V0H2.727A2.721,2.721,0,0,0,0,2.727V55.456a2.721,2.721,0,0,0,2.727,2.727H40.91a2.721,2.721,0,0,0,2.727-2.727V18.182H28.182A2.735,2.735,0,0,1,25.455,15.455Zm18.182-1.6v.693H29.091V0h.693a2.725,2.725,0,0,1,1.932.8L42.842,11.932A2.719,2.719,0,0,1,43.637,13.853Z" transform="translate(164.73 420.173)" fill="#e4e4e4"/>
    <path id="Icon_awesome-check" data-name="Icon awesome-check" d="M8.684,23.27.374,14.96a1.279,1.279,0,0,1,0-1.808l1.808-1.808a1.278,1.278,0,0,1,1.808,0l5.6,5.6,11.99-11.99a1.279,1.279,0,0,1,1.808,0L25.195,6.76a1.279,1.279,0,0,1,0,1.808l-14.7,14.7A1.278,1.278,0,0,1,8.684,23.27Z" transform="translate(197 454.778)" fill="#5db72a"/>
  </g>
</svg>
