<svg xmlns="http://www.w3.org/2000/svg" width="7.569" height="6.056" viewBox="0 0 7.569 6.056">
  <path id="Icon_awesome-pallet" data-name="Icon awesome-pallet" d="M1.7,3.028H5.866a.19.19,0,0,0,.189-.189V.189A.19.19,0,0,0,5.866,0H4.542V1.514l-.757-.378-.757.378V0H1.7a.19.19,0,0,0-.189.189V2.839A.19.19,0,0,0,1.7,3.028ZM7.38,4.542a.19.19,0,0,0,.189-.189V3.974a.19.19,0,0,0-.189-.189H.189A.19.19,0,0,0,0,3.974v.378a.19.19,0,0,0,.189.189H.757V5.3H.189A.19.19,0,0,0,0,5.488v.378a.19.19,0,0,0,.189.189H7.38a.19.19,0,0,0,.189-.189V5.488A.19.19,0,0,0,7.38,5.3H6.813V4.542ZM3.406,5.3H1.514V4.542H3.406Zm2.649,0H4.163V4.542H6.056Z" fill="#ddd"/>
</svg>
