<svg xmlns="http://www.w3.org/2000/svg" width="61.55" height="43.085" viewBox="0 0 61.55 43.085">
  <path id="Icon_awesome-truck-moving" data-name="Icon awesome-truck-moving" d="M59.752,21.994l-5.626-5.626a6.157,6.157,0,0,0-4.357-1.8H46.162V5.327A3.074,3.074,0,0,0,43.085,2.25H3.077A3.074,3.074,0,0,0,0,5.327V37.641a7.675,7.675,0,0,0,13.849,4.578A7.675,7.675,0,0,0,27.7,37.641a8.105,8.105,0,0,0-.154-1.539h15.7a7.391,7.391,0,0,0-.154,1.539,7.694,7.694,0,0,0,15.388,0,8.105,8.105,0,0,0-.154-1.539h1.693a1.543,1.543,0,0,0,1.539-1.539V26.341A6.135,6.135,0,0,0,59.752,21.994ZM7.694,40.719a3.077,3.077,0,1,1,3.077-3.077A3.087,3.087,0,0,1,7.694,40.719Zm12.31,0a3.077,3.077,0,1,1,3.077-3.077A3.087,3.087,0,0,1,20,40.719ZM46.162,19.176h3.606a1.528,1.528,0,0,1,1.087.452l4.164,4.164H46.162Zm4.616,21.542a3.077,3.077,0,1,1,3.078-3.077A3.087,3.087,0,0,1,50.779,40.719Z" transform="translate(0 -2.25)" fill="#fff"/>
</svg>
